<svg xmlns="http://www.w3.org/2000/svg" version="1.1" xmlns:xlink="http://www.w3.org/1999/xlink" xmlns:svgjs="http://svgjs.dev/svgjs" width="100%" height="100%"><svg width="100%" height="100%" viewBox="0 0 80 80" version="1.1" xmlns="http://www.w3.org/2000/svg" xmlns:xlink="http://www.w3.org/1999/xlink" xml:space="preserve" xmlns:serif="http://www.serif.com/" style="fill-rule:evenodd;clip-rule:evenodd;stroke-linejoin:round;stroke-miterlimit:2;">
    <rect x="-0.988" y="-0.997" width="81.03" height="81.039" style="fill:#063436;"></rect>
    <g>
        <path d="M23.012,55.203c-8.293,-0.018 -15,-6.809 -15.012,-15.202c0.012,-8.4 6.719,-15.186 15.012,-15.206c8.288,0.02 14.996,6.806 15.012,15.206c-0.016,8.393 -6.724,15.184 -15.012,15.202Zm28.123,-13.747l23.867,0l-0,-1.455c-0.002,-10.075 -8.064,-18.238 -18.009,-18.238c-7.856,-0 -14.53,5.091 -16.992,12.186c-2.464,-7.095 -9.136,-12.186 -16.989,-12.186c-9.949,-0 -18.012,8.163 -18.014,18.238c0.002,10.073 8.065,18.231 18.014,18.236c7.853,0 14.523,-5.093 16.989,-12.192c2.462,7.099 9.136,12.192 16.992,12.192l0,-3.034c-8.293,-0.018 -14.998,-6.809 -15.014,-15.202c0.016,-8.4 6.721,-15.186 15.014,-15.206c7.803,0.016 14.202,6.032 14.938,13.749l-20.796,-0l0,2.912Z" style="fill:#fff;fill-rule:nonzero;"></path>
        <path d="M26.651,39.829c-0,1.052 0.848,1.915 1.893,1.915c1.044,-0 1.89,-0.863 1.89,-1.915c0,-1.059 -0.846,-1.92 -1.89,-1.92c-1.045,0 -1.893,0.861 -1.893,1.92Z" style="fill:#fff;fill-rule:nonzero;"></path>
        <path d="M15.476,39.829c-0,1.052 0.848,1.915 1.892,1.915c1.046,-0 1.889,-0.863 1.889,-1.915c0,-1.059 -0.843,-1.92 -1.889,-1.92c-1.044,0 -1.892,0.861 -1.892,1.92Z" style="fill:#fff;fill-rule:nonzero;"></path>
    </g>
</svg><style>@media (prefers-color-scheme: light) { :root { filter: none; } }
@media (prefers-color-scheme: dark) { :root { filter: none; } }
</style></svg>