<svg width="171" height="40" viewBox="0 0 171 40" fill="none" xmlns="http://www.w3.org/2000/svg">
<g clip-path="url(#clip0_182_4643)">
<path d="M19.7168 36.6238C10.6406 36.602 3.29883 29.1693 3.2832 19.9802C3.29883 10.7852 10.6406 3.35639 19.7168 3.33662C28.793 3.35639 36.1328 10.7852 36.1523 19.9802C36.1328 29.1693 28.793 36.602 19.7168 36.6238ZM50.5059 21.5744H76.6328V19.9802C76.6309 8.95173 67.8066 0.0158081 56.918 0.0158081C48.3184 0.0158081 41.0117 5.58938 38.3164 13.3564C35.6211 5.58938 28.3145 0.0158081 19.7168 0.0158081C8.82812 0.0158081 0.00195312 8.95173 0 19.9802C0.00195312 31.0087 8.82812 39.9387 19.7168 39.9446C28.3145 39.9446 35.6172 34.3691 38.3164 26.5981C41.0117 34.3691 48.3184 39.9446 56.918 39.9446V36.6238C47.8398 36.602 40.498 29.1693 40.4805 19.9802C40.498 10.7852 47.8398 3.35639 56.918 3.33662C65.4609 3.35244 72.4648 9.93867 73.2715 18.3841H50.5059V21.5744Z" fill="white"/>
<path d="M25.7734 17.6919C24.6309 17.6919 23.7031 18.6333 23.7031 19.7923C23.7031 20.9474 24.6309 21.8889 25.7734 21.8889C26.918 21.8889 27.8438 20.9474 27.8438 19.7923C27.8438 18.6333 26.918 17.6919 25.7734 17.6919Z" fill="white"/>
<path d="M13.5391 17.6919C12.3965 17.6919 11.4668 18.6333 11.4668 19.7923C11.4668 20.9474 12.3965 21.8889 13.5391 21.8889C14.6836 21.8889 15.6094 20.9474 15.6094 19.7923C15.6094 18.6333 14.6836 17.6919 13.5391 17.6919Z" fill="white"/>
<path d="M0 19.9802C0.00195312 31.0087 8.82812 39.9446 19.7188 39.9446V36.6238C10.6406 36.608 3.29883 29.1752 3.2832 19.9802C3.29883 10.7891 10.6406 3.35639 19.7188 3.33662V0.0158081C8.82812 0.0197638 0.00195312 8.95173 0 19.9802Z" fill="white"/>
<path d="M88.0781 8.38212C88.0781 11.7346 89.8145 13.9458 92.4277 13.9458C95.0273 13.9458 96.7812 11.7346 96.7812 8.46914C96.7812 5.00396 95.0898 2.81646 92.4277 2.81646C89.8145 2.81646 88.0781 5.02967 88.0781 8.38212ZM97.8203 2.22903C99.2285 3.75396 100.025 5.9909 100.025 8.49486C100.025 10.7555 99.1816 13.0716 97.8203 14.5471C96.457 16.0344 94.6797 16.7464 92.4277 16.7464C90.1777 16.7464 88.4023 16.0344 87.041 14.5471C85.6328 13.0222 84.8359 10.7694 84.8359 8.38212C84.8359 5.9909 85.6328 3.75396 87.041 2.22903C88.3848 0.751582 90.1973 0 92.4062 0C94.6797 0 96.4316 0.717959 97.8203 2.22903Z" fill="white"/>
<path d="M113.686 13.5107H122.236V16.248H110.441V0.263062H121.85V3.01425H113.686V6.62778H121.24V9.36907H113.686" fill="white"/>
<path d="M136.672 16.248H133.428V0.263062H136.672V7.29233L142.842 0.263062H146.672L140.373 7.15586L147.342 16.248H143.463L138.299 9.19107L136.672 10.9078" fill="white"/>
<path d="M158.691 8.38212C158.691 11.7346 160.424 13.9458 163.039 13.9458C165.637 13.9458 167.393 11.7346 167.393 8.46914C167.393 5.00396 165.703 2.81646 163.039 2.81646C160.424 2.81646 158.691 5.02967 158.691 8.38212ZM168.43 2.22903C169.84 3.75396 170.637 5.9909 170.637 8.49486C170.637 10.7555 169.793 13.0716 168.43 14.5471C167.07 16.0344 165.293 16.7464 163.039 16.7464C160.791 16.7464 159.018 16.0344 157.65 14.5471C156.242 13.0222 155.447 10.7694 155.447 8.38212C155.447 5.9909 156.242 3.75396 157.65 2.22903C158.99 0.751582 160.814 0 163.02 0C165.293 0 167.041 0.717959 168.43 2.22903Z" fill="white"/>
<path d="M93.1797 31.4577C94.9121 31.4577 95.7109 30.6942 95.7109 29.0684C95.7109 27.4308 94.9121 26.6673 93.1797 26.6673H90.1484V31.4577H93.1797ZM90.1484 39.8991H86.8984V23.9142H93.873C97.1641 23.9142 98.9609 25.6764 98.9609 28.8805C98.9609 32.1222 97.0996 34.2089 94.2012 34.2089H90.1484V39.8991Z" fill="white"/>
<path d="M113.33 37.1618H120.887V39.8991H110.088V23.9161H113.33" fill="white"/>
<path d="M137.779 27.6938L135.723 33.9478H139.834L137.779 27.6938ZM134.812 36.6733L133.744 39.8991H130.439L136.045 23.9161H139.637L145.09 39.8991H141.762L140.717 36.6733" fill="white"/>
<path d="M159.922 28.8548V39.8991H156.676V23.9161H160.004L166.268 34.7963V23.9161H169.512V39.8991H166.268" fill="white"/>
<path d="M19.7051 36.61C10.6328 36.5902 3.29688 29.1614 3.2832 19.9802C3.29688 10.7911 10.6328 3.36827 19.7051 3.34651C28.7715 3.36827 36.1094 10.7911 36.127 19.9802C36.1094 29.1614 28.7715 36.5902 19.7051 36.61ZM50.4688 21.5724H76.5762V19.9802C76.5742 8.95965 67.7559 0.0296631 56.877 0.0296631C48.2832 0.0296631 40.9824 5.59928 38.2891 13.3604C35.5938 5.59928 28.2949 0.0296631 19.7051 0.0296631C8.82227 0.0296631 0.00195312 8.95965 0 19.9802C0.00195312 30.9988 8.82227 39.9229 19.7051 39.9288C28.2949 39.9288 35.5918 34.3572 38.2891 26.5922C40.9824 34.3572 48.2832 39.9288 56.877 39.9288V36.61C47.8047 36.5902 40.4707 29.1614 40.4531 19.9802C40.4707 10.7911 47.8047 3.36827 56.877 3.34651C65.4121 3.36431 72.4121 9.94462 73.2168 18.3861H50.4688V21.5724Z" fill="white"/>
<path d="M23.6855 19.7923C23.6855 20.9434 24.6133 21.8869 25.7559 21.8869C26.8984 21.8869 27.8242 20.9434 27.8242 19.7923C27.8242 18.6333 26.8984 17.6919 25.7559 17.6919C24.6133 17.6919 23.6855 18.6333 23.6855 19.7923Z" fill="white"/>
<path d="M11.4609 19.7923C11.4609 20.9434 12.3887 21.8869 13.5312 21.8869C14.6758 21.8869 15.5977 20.9434 15.5977 19.7923C15.5977 18.6333 14.6758 17.6919 13.5312 17.6919C12.3887 17.6919 11.4609 18.6333 11.4609 19.7923Z" fill="white"/>
<path d="M19.7051 39.9288V36.61C10.6328 36.5941 3.29688 29.1673 3.2832 19.9802C3.29688 10.7951 10.6328 3.36827 19.7051 3.34651V0.0296631C8.82227 0.0355966 0.00195312 8.95965 0 19.9802C0.00195312 30.9988 8.82227 39.9288 19.7051 39.9288Z" fill="white"/>
</g>
<defs>
<clipPath id="clip0_182_4643">
<rect width="171" height="40" fill="white"/>
</clipPath>
</defs>
</svg>
