<svg width="54" height="54" viewBox="0 0 54 54" fill="none" xmlns="http://www.w3.org/2000/svg">
<path d="M1 27H3.88889M27 1V3.88889M50.1111 27H53M8.51111 8.51111L10.5333 10.5333M45.4889 8.51111L43.4667 10.5333" stroke="#B0D9D4" stroke-width="2" stroke-linecap="round" stroke-linejoin="round"/>
<path d="M18.3364 38.5556C15.9111 36.7366 14.1196 34.2007 13.2156 31.3069C12.3117 28.4132 12.3411 25.3084 13.2998 22.4323C14.2585 19.5563 16.0978 17.0547 18.5572 15.2821C21.0166 13.5095 23.9714 12.5556 27.003 12.5556C30.0347 12.5556 32.9895 13.5095 35.4489 15.2821C37.9082 17.0547 39.7476 19.5563 40.7062 22.4323C41.6649 25.3084 41.6944 28.4132 40.7905 31.3069C39.8865 34.2007 38.095 36.7366 35.6697 38.5556C34.5418 39.6721 33.6925 41.0385 33.1907 42.5441C32.6888 44.0497 32.5484 45.6523 32.7808 47.2223C32.7808 48.7546 32.1721 50.2242 31.0885 51.3078C30.005 52.3913 28.5354 53.0001 27.003 53.0001C25.4707 53.0001 24.0011 52.3913 22.9175 51.3078C21.834 50.2242 21.2253 48.7546 21.2253 47.2223C21.4577 45.6523 21.3173 44.0497 20.8154 42.5441C20.3135 41.0385 19.4643 39.6721 18.3364 38.5556Z" stroke="#B0D9D4" stroke-width="2" stroke-linecap="round" stroke-linejoin="round"/>
<path d="M17.4 39.9286C14.7135 37.9047 12.7291 35.0831 11.7278 31.8634C10.7265 28.6437 10.7591 25.1892 11.8211 21.9892C12.883 18.7892 14.9204 16.0059 17.6446 14.0336C20.3689 12.0613 23.6419 11 27 11C30.3581 11 33.6311 12.0613 36.3554 14.0336C39.0796 16.0059 41.117 18.7892 42.1789 21.9892C43.2409 25.1892 43.2735 28.6437 42.2722 31.8634C41.2709 35.0831 39.2865 37.9047 36.6 39.9286C35.3506 41.1708 34.5559 39.8248 34 41.5C33.8035 42.0921 33.5888 42.0474 33.4048 41.8193C32.7918 41.0598 33.165 41.9512 32.41 41.3327C32.189 41.1517 31.8927 41.1055 31.5 41.5C30.2998 42.7056 28.6974 41.5 27 41.5C25.3026 41.5 26.2002 42.7056 25 41.5C24.5164 41.0143 24.0979 41.1967 23.7704 41.4762C23.0281 42.1099 23.0391 40.9681 22.3763 41.6846C22.0734 42.0121 21.731 42.196 21.5 41.5C20.9441 39.8248 18.6494 41.1708 17.4 39.9286Z" fill="url(#paint0_linear_182_4928)"/>
<path d="M20 41H34" stroke="#B0D9D4" stroke-width="2" stroke-linecap="round" stroke-linejoin="round"/>
<path d="M22 45L32 45" stroke="#B0D9D4" stroke-width="2" stroke-linecap="round" stroke-linejoin="round"/>
<path d="M22 49L32 49" stroke="#B0D9D4" stroke-width="2" stroke-linecap="round" stroke-linejoin="round"/>
<defs>
<linearGradient id="paint0_linear_182_4928" x1="11" y1="56" x2="43" y2="56" gradientUnits="userSpaceOnUse">
<stop stop-color="#C6E51B"/>
<stop offset="1" stop-color="#F3FFB3"/>
</linearGradient>
</defs>
</svg>
